<svg width="84" height="84" viewBox="0 0 84 84" fill="none" xmlns="http://www.w3.org/2000/svg">
<path d="M79.5002 25.3333C78.6585 25.3333 59.2918 25.4542 42.0002 33.7C24.7085 25.4542 5.34183 25.3333 4.50016 25.3333C3.39509 25.3333 2.33529 25.7723 1.55388 26.5537C0.772483 27.3351 0.333496 28.3949 0.333496 29.5V70.6792C0.333502 71.2383 0.446019 71.7916 0.664348 72.3063C0.882676 72.821 1.20235 73.2865 1.60433 73.675C2.41683 74.4583 3.60433 74.9458 4.64183 74.8417L5.171 74.8375C8.01683 74.8375 23.071 75.2458 40.2377 83.275C40.3043 83.3083 40.3793 83.2958 40.446 83.3208C40.9418 83.525 41.4627 83.6667 42.0002 83.6667C42.5377 83.6667 43.0585 83.525 43.5585 83.3208C43.6252 83.2958 43.7002 83.3083 43.7668 83.275C60.9335 75.2417 75.9877 74.8375 78.8335 74.8375L79.3627 74.8417C80.3543 74.9458 81.5835 74.4583 82.4002 73.675C83.2085 72.8875 83.6668 71.8042 83.6668 70.6792V29.5C83.6668 28.3949 83.2278 27.3351 82.4464 26.5537C81.665 25.7723 80.6052 25.3333 79.5002 25.3333ZM8.66683 33.8708C14.8543 34.3333 26.921 35.8708 37.8335 40.9208V73.1792C25.3335 68.2833 14.5418 66.9542 8.66683 66.6125V33.8708ZM75.3335 66.6125C69.4585 66.9542 58.6668 68.2833 46.1668 73.1792V40.9208C57.0793 35.8708 69.146 34.3333 75.3335 33.8708V66.6125Z" fill="#819981"/>
<path d="M42 25.3333C48.9036 25.3333 54.5 19.7369 54.5 12.8333C54.5 5.92978 48.9036 0.333344 42 0.333344C35.0964 0.333344 29.5 5.92978 29.5 12.8333C29.5 19.7369 35.0964 25.3333 42 25.3333Z" fill="#819981"/>
</svg>
