<svg width="21" height="20" viewBox="0 0 21 20" fill="none" xmlns="http://www.w3.org/2000/svg">
<path d="M8.97352 6.937V8.314H7.96552V9.997H8.97352V15H11.0455V9.997H12.4355C12.4355 9.997 12.5665 9.19 12.6295 8.307H11.0535V7.157C11.0535 6.984 11.2795 6.753 11.5035 6.753H12.6315V5H11.0965C8.92252 5 8.97352 6.685 8.97352 6.937Z" fill="black"/>
<path d="M4.27863 2C3.74819 2 3.23948 2.21071 2.86441 2.58579C2.48934 2.96086 2.27863 3.46957 2.27863 4V16C2.27863 16.5304 2.48934 17.0391 2.86441 17.4142C3.23948 17.7893 3.74819 18 4.27863 18H16.2786C16.8091 18 17.3178 17.7893 17.6928 17.4142C18.0679 17.0391 18.2786 16.5304 18.2786 16V4C18.2786 3.46957 18.0679 2.96086 17.6928 2.58579C17.3178 2.21071 16.8091 2 16.2786 2H4.27863ZM4.27863 0H16.2786C17.3395 0 18.3569 0.421427 19.1071 1.17157C19.8572 1.92172 20.2786 2.93913 20.2786 4V16C20.2786 17.0609 19.8572 18.0783 19.1071 18.8284C18.3569 19.5786 17.3395 20 16.2786 20H4.27863C3.21776 20 2.20034 19.5786 1.4502 18.8284C0.700053 18.0783 0.278625 17.0609 0.278625 16V4C0.278625 2.93913 0.700053 1.92172 1.4502 1.17157C2.20034 0.421427 3.21776 0 4.27863 0V0Z" fill="black"/>
</svg>
