<svg width="21" height="20" viewBox="0 0 21 20" fill="none" xmlns="http://www.w3.org/2000/svg">
<path fill-rule="evenodd" clip-rule="evenodd" d="M10.4016 5.45435C9.19607 5.45435 8.03991 5.93324 7.18747 6.78568C6.33503 7.63812 5.85614 8.79427 5.85614 9.9998C5.85614 11.2053 6.33503 12.3615 7.18747 13.2139C8.03991 14.0664 9.19607 14.5453 10.4016 14.5453C11.6071 14.5453 12.7633 14.0664 13.6157 13.2139C14.4682 12.3615 14.9471 11.2053 14.9471 9.9998C14.9471 8.79427 14.4682 7.63812 13.6157 6.78568C12.7633 5.93324 11.6071 5.45435 10.4016 5.45435ZM7.67432 9.9998C7.67432 10.7231 7.96166 11.4168 8.47312 11.9283C8.98458 12.4397 9.67828 12.7271 10.4016 12.7271C11.1249 12.7271 11.8186 12.4397 12.3301 11.9283C12.8415 11.4168 13.1289 10.7231 13.1289 9.9998C13.1289 9.27648 12.8415 8.58279 12.3301 8.07133C11.8186 7.55986 11.1249 7.27253 10.4016 7.27253C9.67828 7.27253 8.98458 7.55986 8.47312 8.07133C7.96166 8.58279 7.67432 9.27648 7.67432 9.9998Z" fill="black"/>
<path d="M15.8561 3.63635C15.615 3.63635 15.3838 3.73213 15.2133 3.90262C15.0428 4.07311 14.947 4.30434 14.947 4.54544C14.947 4.78655 15.0428 5.01778 15.2133 5.18827C15.3838 5.35876 15.615 5.45453 15.8561 5.45453C16.0972 5.45453 16.3284 5.35876 16.4989 5.18827C16.6694 5.01778 16.7652 4.78655 16.7652 4.54544C16.7652 4.30434 16.6694 4.07311 16.4989 3.90262C16.3284 3.73213 16.0972 3.63635 15.8561 3.63635Z" fill="black"/>
<path fill-rule="evenodd" clip-rule="evenodd" d="M4.03785 0C3.07343 0 2.14851 0.383116 1.46656 1.06507C0.784605 1.74702 0.401489 2.67194 0.401489 3.63636V16.3636C0.401489 17.3281 0.784605 18.253 1.46656 18.9349C2.14851 19.6169 3.07343 20 4.03785 20H16.7651C17.7295 20 18.6545 19.6169 19.3364 18.9349C20.0184 18.253 20.4015 17.3281 20.4015 16.3636V3.63636C20.4015 2.67194 20.0184 1.74702 19.3364 1.06507C18.6545 0.383116 17.7295 0 16.7651 0H4.03785ZM16.7651 1.81818H4.03785C3.55564 1.81818 3.09318 2.00974 2.7522 2.35071C2.41123 2.69169 2.21967 3.15415 2.21967 3.63636V16.3636C2.21967 16.8458 2.41123 17.3083 2.7522 17.6493C3.09318 17.9903 3.55564 18.1818 4.03785 18.1818H16.7651C17.2473 18.1818 17.7098 17.9903 18.0508 17.6493C18.3918 17.3083 18.5833 16.8458 18.5833 16.3636V3.63636C18.5833 3.15415 18.3918 2.69169 18.0508 2.35071C17.7098 2.00974 17.2473 1.81818 16.7651 1.81818Z" fill="black"/>
</svg>
